<svg id="Laag_1" data-name="Laag 1" xmlns="http://www.w3.org/2000/svg" viewBox="0 0 291.32 77.87"><defs><style>.cls-1{fill:none;stroke:#fff;stroke-linejoin:round;stroke-width:3px;}.cls-2{fill:#fff;}</style></defs><polygon class="cls-1" points="66.34 1.5 23.11 1.5 1.5 38.94 23.11 76.37 66.34 76.37 87.95 38.94 66.34 1.5"/><path class="cls-2" d="M211.28,168.3v6l-2.66.34a4.15,4.15,0,0,1-1.05-1.77h-5.06v19.57a6.32,6.32,0,0,1,2.32,1.4l-.43,3.5h-9.87l-.42-3.5a5.41,5.41,0,0,1,2.32-1.4V172.9h-5.06a4,4,0,0,1-1.06,1.77l-2.65-.34v-6Z" transform="translate(-166.65 -143.88)"/><path class="cls-2" d="M226,172.86a11.29,11.29,0,0,0-3-.38,3.82,3.82,0,0,0-2.51.78,2.66,2.66,0,0,0-1,2.19,3.27,3.27,0,0,0,.71,2.22,6.18,6.18,0,0,0,2.83,1.39l3.76,1.09a10.79,10.79,0,0,1,4.83,2.77,7.68,7.68,0,0,1,1.79,5.5,8.25,8.25,0,0,1-3.1,6.8,11.92,11.92,0,0,1-7.7,2.48,21.67,21.67,0,0,1-5.21-.65,13.93,13.93,0,0,1-4.45-1.83v-1a17.67,17.67,0,0,1,.29-2.45,10.23,10.23,0,0,1,.85-2.83h4a8.89,8.89,0,0,1,.81,3.5,8.5,8.5,0,0,0,3.43.64,5.31,5.31,0,0,0,3.23-.93,3.09,3.09,0,0,0,1.27-2.66,5.53,5.53,0,0,0-.13-1.33,2.42,2.42,0,0,0-.78-1.14,4.74,4.74,0,0,0-1.88-1l-4.34-1.26q-6.63-1.91-6.63-8.44a7.55,7.55,0,0,1,2.79-6.14,11.08,11.08,0,0,1,7.28-2.3,20.46,20.46,0,0,1,8.79,2v1a17.74,17.74,0,0,1-.29,2.44,10.13,10.13,0,0,1-.85,2.83h-4A6.61,6.61,0,0,1,226,172.86Z" transform="translate(-166.65 -143.88)"/><path class="cls-2" d="M289.55,164.86v6l-2.64.34a4,4,0,0,1-1.05-1.76h-5v19.48a6.18,6.18,0,0,1,2.31,1.39l-.42,3.49h-9.83l-.42-3.49a5.29,5.29,0,0,1,2.31-1.39V169.44h-5a4.16,4.16,0,0,1-1.05,1.76l-2.65-.34v-6Z" transform="translate(-166.65 -143.88)"/><path class="cls-2" d="M290.89,164a19.13,19.13,0,0,1,4.37-.55c1.35,0,2.48,0,3.4.13v10.5a9.45,9.45,0,0,1,2.69-1.14,11.35,11.35,0,0,1,3-.46c2.78,0,4.69.67,5.76,2s1.59,3.38,1.59,6.13v8.52a5.67,5.67,0,0,1,2.32,1.43l-.42,3.24h-9.66l-.42-3.24a5,5,0,0,1,2.3-1.43v-8.31a4.59,4.59,0,0,0-.73-3,3.61,3.61,0,0,0-2.67-.77,6.17,6.17,0,0,0-3.74,1.34v10.79a5.56,5.56,0,0,1,2.31,1.43l-.42,3.24h-9.66l-.42-3.24a5.06,5.06,0,0,1,2.31-1.43V168.64a5.43,5.43,0,0,1-2.31-1.43Z" transform="translate(-166.65 -143.88)"/><path class="cls-2" d="M325.54,194.13c-3.36,0-5.88-.89-7.58-2.69s-2.54-4.39-2.54-7.81a14.54,14.54,0,0,1,.89-5.35,8.05,8.05,0,0,1,2.39-3.47,10.62,10.62,0,0,1,6.84-2.35,8.36,8.36,0,0,1,6,2c1.39,1.34,2.08,3.72,2.08,7.17q0,3-3,3h-9.12a5.37,5.37,0,0,0,1.37,3.74,5.51,5.51,0,0,0,3.8,1.09,10.64,10.64,0,0,0,2.73-.34,7.7,7.7,0,0,0,1.89-.67l.59-.33,1.26,3.36a10.38,10.38,0,0,1-.74.73A8.84,8.84,0,0,1,330,193.4,12.57,12.57,0,0,1,325.54,194.13Zm2.65-13.23a9.64,9.64,0,0,0,.09-1.43,3.11,3.11,0,0,0-.68-1.78,2.65,2.65,0,0,0-2.33-.95,3.21,3.21,0,0,0-2.54,1,6.42,6.42,0,0,0-1.18,3.4Z" transform="translate(-166.65 -143.88)"/><path class="cls-2" d="M358.39,169.39a11.7,11.7,0,0,0-3-.37,3.79,3.79,0,0,0-2.5.77,2.68,2.68,0,0,0-1,2.19,3.15,3.15,0,0,0,.72,2.2,6,6,0,0,0,2.81,1.39l3.74,1.09a10.69,10.69,0,0,1,4.81,2.75,7.64,7.64,0,0,1,1.78,5.48,8.19,8.19,0,0,1-3.09,6.76,11.79,11.79,0,0,1-7.66,2.48,22.08,22.08,0,0,1-5.19-.65,13.68,13.68,0,0,1-4.43-1.83v-1a16.52,16.52,0,0,1,.3-2.44,10.12,10.12,0,0,1,.83-2.81h4a8.85,8.85,0,0,1,.79,3.48,8.64,8.64,0,0,0,3.43.63,5.26,5.26,0,0,0,3.21-.92,3.09,3.09,0,0,0,1.26-2.65,5.44,5.44,0,0,0-.13-1.32,2.4,2.4,0,0,0-.77-1.13,4.77,4.77,0,0,0-1.87-1l-4.33-1.26q-6.59-1.89-6.59-8.4a7.52,7.52,0,0,1,2.77-6.11,11,11,0,0,1,7.24-2.29,20.25,20.25,0,0,1,8.76,2v1a17.58,17.58,0,0,1-.29,2.44,10.45,10.45,0,0,1-.84,2.81h-4A6.45,6.45,0,0,1,358.39,169.39Z" transform="translate(-166.65 -143.88)"/><path class="cls-2" d="M387,172.8v24.94a4.75,4.75,0,0,1,1.76,1.22l-.41,3.24h-9.75l-.42-3.24a5.75,5.75,0,0,1,2.94-1.64v-4.74a8.35,8.35,0,0,1-4.58,1.55q-4.67,0-6.72-2.43t-2.06-8.07q0-6.34,3.11-8.9a10.18,10.18,0,0,1,6.72-2.27,10.67,10.67,0,0,1,4.46,1,3.13,3.13,0,0,1,1.76-.63Zm-13.19,10.73a10.34,10.34,0,0,0,.84,4.85,3,3,0,0,0,2.82,1.47,5.2,5.2,0,0,0,3.65-1.6V177.46a9.12,9.12,0,0,0-3.63-.72,3,3,0,0,0-2.82,1.7A11.76,11.76,0,0,0,373.84,183.53Z" transform="translate(-166.65 -143.88)"/><path class="cls-2" d="M405.72,192a11.32,11.32,0,0,1-6.82,2.1c-2.62,0-4.45-.54-5.48-1.64s-1.56-2.87-1.56-5.33v-9.7a5.43,5.43,0,0,1-2.31-1.43l.42-3.23a19.13,19.13,0,0,1,4.37-.55c1.34,0,2.48,0,3.4.13v13.39a4.6,4.6,0,0,0,.69,3,3.83,3.83,0,0,0,2.75.73,6.22,6.22,0,0,0,3.83-1.34V177.46A5.43,5.43,0,0,1,402.7,176l.42-3.23a19,19,0,0,1,4.36-.55c1.35,0,2.48,0,3.41.13v16.38a9.21,9.21,0,0,1,2.31.71v3.32a13.48,13.48,0,0,1-6.35,1.34A2.66,2.66,0,0,1,405.72,192Z" transform="translate(-166.65 -143.88)"/><path class="cls-2" d="M415.76,175.9c0-.42,0-.86,0-1.34a17.5,17.5,0,0,1,8.4-2.1q4.5,0,6.45,1.7c1.3,1.13,2,3,2,5.65v8.95a9.21,9.21,0,0,1,2.31.71v3.65a14.68,14.68,0,0,1-6.13,1,15.06,15.06,0,0,1-.71-2.64c-1.21,1.76-3.39,2.64-6.56,2.64a7.31,7.31,0,0,1-4.81-1.64,5.44,5.44,0,0,1-2-4.45,5.55,5.55,0,0,1,1.87-4.43,8.27,8.27,0,0,1,5.56-1.62h4.58v-2q0-3.28-3.48-3.28a8,8,0,0,0-2.15.25,7.86,7.86,0,0,1-.5,2.73h-4.12A8.76,8.76,0,0,1,415.76,175.9Zm7.56,13.95a4.59,4.59,0,0,0,3.4-1.26v-3.45h-2.94c-2,0-3,.77-3,2.31a2.37,2.37,0,0,0,.65,1.73A2.56,2.56,0,0,0,423.32,189.85Z" transform="translate(-166.65 -143.88)"/><path class="cls-2" d="M447.34,164a20.27,20.27,0,0,1,4.58-.55c1.46,0,2.7,0,3.74.13v25.2a8.42,8.42,0,0,1,2.31.71v3.32a13.57,13.57,0,0,1-6.39,1.34,2.33,2.33,0,0,1-.81-.75,2,2,0,0,1-.44-1,8.19,8.19,0,0,1-2.4,1.28,8.59,8.59,0,0,1-2.9.52q-4.53,0-6.57-2.46t-2-8q0-6.34,3.11-8.9a10.18,10.18,0,0,1,6.72-2.27,15.2,15.2,0,0,1,3.53.42v-4.16a6.26,6.26,0,0,1-2.86-1.51Zm-1.42,25.87a5.32,5.32,0,0,0,3.86-1.43V177.16a15.43,15.43,0,0,0-3.66-.42,2.93,2.93,0,0,0-2.79,1.7,11.76,11.76,0,0,0-.86,5.09,10.34,10.34,0,0,0,.84,4.85A2.8,2.8,0,0,0,445.92,189.85Z" transform="translate(-166.65 -143.88)"/></svg>